<?xml version="1.0" encoding="UTF-8" standalone="no"?><!DOCTYPE svg PUBLIC "-//W3C//DTD SVG 1.1//EN" "http://www.w3.org/Graphics/SVG/1.1/DTD/svg11.dtd"><svg width="100%" height="100%" viewBox="0 0 891 940" version="1.1" xmlns="http://www.w3.org/2000/svg" xmlns:xlink="http://www.w3.org/1999/xlink" xml:space="preserve" xmlns:serif="http://www.serif.com/" style="fill-rule:evenodd;clip-rule:evenodd;stroke-linejoin:round;stroke-miterlimit:2;"><g id="Calque_1-2"><path d="M478.44,508.27c-1.38,-1.32 -2.16,-3.12 -2.16,-5l0,-140.54c0,-2.7 3.41,-4.05 5.41,-2.14l26.42,25.17c1.54,1.48 2.42,3.49 2.42,5.56l0,141.62c0,1.86 -2.34,2.81 -3.74,1.52l-28.34,-26.19l-0.01,-0Zm94.21,-154.51l-46.98,-44.76c-2.89,-2.77 -7.59,-2.77 -10.5,0l-28.04,26.73c-2.9,2.76 -7.6,2.76 -10.5,0l-28.05,-26.73c-2.89,-2.77 -7.59,-2.77 -10.5,0l-38.56,36.75c-2.9,2.77 -2.9,7.24 0,10.01l27.67,26.37l0,123.64c0,1.87 -0.78,3.67 -2.17,5l-8.37,7.98c-2.9,2.76 -7.6,2.76 -10.5,0l-9.71,-9.26c-1.4,-1.32 -2.17,-3.12 -2.17,-4.99l0,-256c0,-1.94 0.91,-3.73 2.31,-5.14c2.76,-2.77 2.72,-7.14 -0.13,-9.86l-29.85,-28.45c-2.9,-2.76 -7.6,-2.76 -10.5,0l-38.57,36.76c-2.89,2.76 -2.89,7.24 0,10l25.51,24.31c1.38,1.32 2.16,3.12 2.16,5l0,207.39c0,1.87 -0.78,3.67 -2.16,4.99l-25.51,24.31c-2.89,2.77 -2.89,7.24 0,10.01l46.98,44.76c2.9,2.76 7.59,2.76 10.5,0l31.15,-29.68c2.89,-2.77 7.59,-2.77 10.5,0l8.37,7.98c1.4,1.32 2.17,3.12 2.17,4.99l0,99c0,1.87 -0.78,3.67 -2.17,5l-21.31,20.31c-2.9,2.76 -2.9,7.24 0,10l46.96,44.78c2.9,2.76 7.6,2.76 10.5,0l38.57,-36.76c2.9,-2.76 2.9,-7.24 0,-10l-21.32,-20.32c-1.38,-1.32 -2.16,-3.12 -2.16,-4.99l0,-88.48c0,-1.88 0.78,-3.68 2.16,-5l32.57,-31.04l46.4,-44.22c1.38,-1.32 2.17,-3.12 2.17,-5l0,-110c0,-1.88 0.78,-3.68 2.16,-5l10.9,-10.39c2.9,-2.76 2.9,-7.24 0,-10" style="fill:#fff;fill-rule:nonzero;"/><path d="M58.31,425.645l39.662,39.662c2.595,2.595 2.595,6.809 0,9.405l-39.662,39.662c-2.595,2.595 -6.809,2.595 -9.405,0l-39.662,-39.662c-2.595,-2.595 -2.595,-6.809 0,-9.405l39.662,-39.662c2.595,-2.595 6.809,-2.595 9.405,0Z" style="fill:#fff;"/><path d="M841.305,425.641l39.662,39.662c2.595,2.595 2.595,6.809 0,9.405l-39.662,39.662c-2.595,2.595 -6.809,2.595 -9.405,0l-39.662,-39.662c-2.595,-2.595 -2.595,-6.809 0,-9.405l39.662,-39.662c2.595,-2.595 6.809,-2.595 9.405,0Z" style="fill:#fff;"/><path d="M100.87,363.59l-100.87,-41.03l10.07,-24.76l100.87,41.03l-10.07,24.76Zm1.74,-4.28l-21.09,-8.58l23.94,-58.84l21.09,8.58l-23.94,58.84Z" style="fill:#fff;fill-rule:nonzero;"/><path d="M145.26,276.44c-5.42,7.76 -12.13,11.62 -20.16,11.58c-8.03,-0.03 -17.63,-3.95 -28.81,-11.76l-40.32,-28.14l15.3,-21.92l40.05,27.95c5.23,3.65 9.4,5.46 12.52,5.42c3.11,-0.04 5.65,-1.46 7.6,-4.25c1.38,-1.98 2.14,-4.17 2.27,-6.57c0.13,-2.39 -0.43,-4.96 -1.67,-7.7c-1.24,-2.74 -3.29,-5.62 -6.15,-8.62c-2.86,-3 -6.64,-6.15 -11.33,-9.42l-27.6,-19.27l15.3,-21.92l39.24,27.39l32.2,22.48l-13.03,18.67l-27.87,-19.45l-0.66,0.95c6.57,5.39 11.38,10.56 14.43,15.51c3.05,4.95 4.45,9.82 4.2,14.6c-0.26,4.79 -2.08,9.61 -5.48,14.48l-0.03,-0.01Z" style="fill:#fff;fill-rule:nonzero;"/><path d="M212.69,199.36c-5.87,5.15 -11.7,8.69 -17.47,10.61c-5.78,1.92 -11.37,2.47 -16.77,1.65c-5.4,-0.82 -10.5,-2.71 -15.3,-5.68c-4.79,-2.96 -9.19,-6.72 -13.18,-11.27c-4.06,-4.63 -7.3,-9.58 -9.73,-14.84c-2.42,-5.26 -3.8,-10.71 -4.13,-16.35c-0.33,-5.63 0.76,-11.23 3.26,-16.8c2.51,-5.56 6.7,-10.92 12.57,-16.07c6.95,-6.09 13.69,-9.7 20.24,-10.83c6.54,-1.13 12.48,-0.37 17.8,2.28c5.32,2.65 9.72,6.7 13.18,12.15l-16.17,16.6c-2.45,-3.12 -4.91,-5.31 -7.4,-6.56c-2.49,-1.25 -4.94,-1.67 -7.34,-1.24c-2.4,0.43 -4.72,1.62 -6.96,3.58c-1.98,1.74 -3.42,3.65 -4.29,5.74c-0.88,2.09 -1.16,4.35 -0.85,6.78c0.31,2.44 1.21,5.05 2.7,7.84c1.49,2.79 3.66,5.79 6.48,9.02c3.63,4.14 7.22,7.27 10.78,9.42c3.56,2.14 7,3.15 10.33,3.01c3.32,-0.13 6.47,-1.51 9.45,-4.12c3.06,-2.68 4.72,-5.46 4.99,-8.33c0.26,-2.87 -0.35,-5.65 -1.85,-8.36c-1.5,-2.71 -3.39,-5.03 -5.68,-6.98l19.25,-15.34c3.69,3.21 6.62,6.89 8.81,11.04c2.18,4.16 3.29,8.63 3.33,13.43c0.04,4.8 -1.22,9.71 -3.77,14.72c-2.55,5.02 -6.64,9.99 -12.26,14.92l-0.02,-0.02Z" style="fill:#fff;fill-rule:nonzero;"/><path d="M266.63,160.58c-3.9,2.03 -7.96,3.28 -12.19,3.75c-4.22,0.46 -8.26,-0.25 -12.1,-2.16c-3.85,-1.9 -7.11,-5.44 -9.81,-10.61c-2.49,-4.78 -3.58,-9.14 -3.28,-13.08c0.3,-3.94 1.54,-7.62 3.73,-11.06c2.18,-3.43 4.88,-6.57 8.11,-9.44c3.22,-2.86 6.46,-5.57 9.72,-8.13c4.56,-3.62 7.96,-6.38 10.19,-8.29c2.23,-1.91 3.61,-3.49 4.13,-4.76c0.52,-1.26 0.43,-2.58 -0.29,-3.94c-1.47,-2.83 -3.64,-4.43 -6.5,-4.8c-2.86,-0.37 -6,0.33 -9.41,2.11c-2.15,1.12 -4.09,2.63 -5.83,4.53c-1.74,1.9 -2.77,4.21 -3.09,6.92c-0.32,2.71 0.53,5.9 2.56,9.55l-21.83,9.52c-3.4,-6.04 -5.13,-11.62 -5.19,-16.74c-0.06,-5.11 1.09,-9.75 3.46,-13.9c2.37,-4.15 5.42,-7.81 9.15,-11c3.74,-3.19 7.7,-5.87 11.89,-8.06c7.71,-4.02 14.8,-5.88 21.27,-5.6c6.48,0.29 12.32,2.51 17.53,6.68c5.21,4.17 9.83,10.11 13.84,17.81l7.17,13.75c1.68,3.22 3.37,6.46 5.07,9.73c1.7,3.27 3.39,6.51 5.07,9.73l5.03,9.66l-20.49,10.68c-1.83,-3.51 -3.69,-7.07 -5.57,-10.68c-1.88,-3.61 -3.86,-7.41 -5.95,-11.41l-0.88,0.46c1.9,4.59 2.56,9.37 1.97,14.32c-0.58,4.95 -2.33,9.58 -5.23,13.89c-2.91,4.3 -6.99,7.83 -12.26,10.57l0.01,0Zm0.81,-22.38c1.66,-0.86 3.27,-2.11 4.84,-3.73c1.57,-1.62 2.83,-3.61 3.77,-5.97c0.94,-2.35 1.28,-5.1 1.01,-8.25c-0.27,-3.14 -1.4,-6.62 -3.38,-10.42l-1.83,-3.51l3.72,-2.5c-0.12,1.68 -0.88,3.37 -2.28,5.09c-1.4,1.72 -3.11,3.39 -5.12,4.99c-2.02,1.61 -4.06,3.23 -6.12,4.86c-2.06,1.63 -3.88,3.33 -5.45,5.07c-1.57,1.75 -2.65,3.55 -3.23,5.4c-0.58,1.86 -0.32,3.86 0.8,6c1.32,2.54 3.23,3.99 5.72,4.37c2.49,0.38 5,-0.1 7.54,-1.42l0.01,0.02Z" style="fill:#fff;fill-rule:nonzero;"/><path d="M360.22,123.27c-5.66,1.41 -11.05,2.16 -16.19,2.25c-5.14,0.09 -9.8,-0.65 -13.98,-2.21c-4.19,-1.56 -7.73,-4.17 -10.62,-7.81c-2.89,-3.64 -4.91,-8.44 -6.05,-14.39l22.1,-7.55c1.09,3.47 2.62,6.18 4.58,8.13c1.96,1.95 4.3,3.15 7.02,3.61c2.72,0.46 5.84,0.25 9.37,-0.63c3.31,-0.82 6.02,-2.1 8.15,-3.81c2.12,-1.72 2.85,-3.91 2.19,-6.58c-0.34,-1.39 -1.06,-2.43 -2.14,-3.12c-1.08,-0.69 -2.87,-1.16 -5.36,-1.38c-2.5,-0.23 -6.06,-0.33 -10.71,-0.31c-5.79,-0.03 -11.05,-0.19 -15.77,-0.49c-4.72,-0.29 -8.87,-1.02 -12.44,-2.17c-3.58,-1.15 -6.51,-2.94 -8.82,-5.37c-2.31,-2.43 -3.98,-5.73 -5.01,-9.89c-1.46,-5.87 -1.13,-11.25 0.99,-16.15c2.12,-4.89 5.69,-9.12 10.7,-12.7c5,-3.57 11.14,-6.26 18.4,-8.07c6.51,-1.62 12.85,-2.12 19.01,-1.5c6.16,0.62 11.44,2.82 15.84,6.6c4.4,3.78 7.12,9.56 8.15,17.35l-21.58,7.59c-0.45,-3.17 -1.54,-5.71 -3.25,-7.61c-1.72,-1.89 -3.84,-3.12 -6.36,-3.69c-2.52,-0.57 -5.38,-0.44 -8.58,0.35c-3.63,0.9 -6.27,2.27 -7.91,4.1c-1.64,1.83 -2.21,3.75 -1.71,5.78c0.4,1.6 1.35,2.81 2.86,3.62c1.5,0.82 3.67,1.3 6.48,1.45c2.81,0.15 6.42,0.19 10.83,0.11c3.81,-0.16 7.84,-0.14 12.08,0.05c4.24,0.19 8.32,0.85 12.22,1.97c3.91,1.13 7.33,3.02 10.26,5.69c2.93,2.67 5.01,6.46 6.23,11.37c1.3,5.23 1.01,10.18 -0.89,14.85c-1.9,4.67 -5.36,8.76 -10.38,12.28c-5.02,3.52 -11.59,6.29 -19.7,8.31l-0.01,-0.03Z" style="fill:#fff;fill-rule:nonzero;"/><path d="M437.66,108.43l10.15,-108.43l26.61,2.49l-10.14,108.43l-26.61,-2.49l-0.01,0Zm22.76,-28.87l2,-21.36l20.21,1.89c6.68,0.62 11.79,-0.25 15.33,-2.63c3.54,-2.38 5.6,-6.69 6.18,-12.93c0.55,-5.91 -0.54,-10.46 -3.28,-13.65c-2.74,-3.18 -7.18,-5.06 -13.31,-5.64l-21.85,-2.04l2,-21.36l23.33,2.18c6.24,0.58 11.98,1.87 17.21,3.85c5.23,1.98 9.69,4.75 13.39,8.3c3.7,3.55 6.45,7.84 8.24,12.87c1.79,5.03 2.37,10.94 1.74,17.73c-0.81,8.65 -3.43,15.7 -7.86,21.14c-4.43,5.44 -10.45,9.27 -18.06,11.49c-7.61,2.22 -16.73,2.83 -27.35,1.83l-17.91,-1.68l-0.01,0.01Z" style="fill:#fff;fill-rule:nonzero;"/><path d="M567.12,134.35c-7.78,-2.75 -13.89,-6.16 -18.34,-10.24c-4.45,-4.08 -7.6,-8.63 -9.44,-13.66c-1.84,-5.03 -2.58,-10.27 -2.22,-15.75c0.36,-5.47 1.51,-10.96 3.45,-16.46c2.09,-5.91 4.84,-11.3 8.25,-16.16c3.41,-4.86 7.44,-8.83 12.08,-11.92c4.65,-3.08 9.92,-4.95 15.81,-5.61c5.89,-0.66 12.36,0.26 19.42,2.75c7.05,2.49 12.66,5.85 16.83,10.06c4.17,4.22 6.99,9.03 8.46,14.45c1.47,5.42 1.63,11.14 0.5,17.15c-1.14,6.02 -3.45,12.14 -6.93,18.38l-59.92,-20.12l4.84,-13.69l40.57,13.46l-6.07,6.78c2.31,-4.55 3.65,-8.6 4.03,-12.14c0.38,-3.54 -0.17,-6.54 -1.64,-8.98c-1.47,-2.44 -4.02,-4.31 -7.65,-5.59c-3.84,-1.36 -7.25,-1.45 -10.22,-0.29c-2.98,1.17 -5.57,3.37 -7.76,6.62c-2.2,3.25 -4.16,7.31 -5.88,12.18c-2.97,8.4 -3.73,15.02 -2.29,19.84c1.44,4.83 5.07,8.27 10.88,10.32c2.49,0.88 4.67,1.3 6.55,1.27c1.88,-0.04 3.55,-0.47 5.01,-1.29c1.46,-0.83 2.7,-2.02 3.72,-3.59c1.02,-1.56 1.86,-3.45 2.53,-5.67l22.58,9.38c-0.9,3.53 -2.48,6.94 -4.75,10.22c-2.27,3.28 -5.3,6 -9.1,8.16c-3.8,2.16 -8.45,3.37 -13.97,3.64c-5.52,0.27 -11.96,-0.9 -19.32,-3.5l-0.01,0Z" style="fill:#fff;fill-rule:nonzero;"/><path d="M609.66,149.31l24.75,-40.37l20.78,-33.9l19.69,12.07l-18.11,29.54l1.13,0.69c5.39,-7.53 10.3,-13.07 14.73,-16.61c4.43,-3.54 8.47,-5.51 12.14,-5.91c3.66,-0.4 7.04,0.35 10.14,2.25c1.69,1.04 3.3,2.35 4.84,3.94c1.54,1.59 2.88,3.45 4.04,5.57l-16.65,24.63c-1.32,-2.48 -2.77,-4.63 -4.37,-6.45c-1.6,-1.82 -3.29,-3.27 -5.07,-4.36c-3,-1.84 -6.05,-2.55 -9.15,-2.12c-3.1,0.42 -6.19,1.95 -9.28,4.57c-3.09,2.62 -6.07,6.28 -8.95,10.97l-18.02,29.4l-22.65,-13.88l0.01,-0.03Z" style="fill:#fff;fill-rule:nonzero;"/><path d="M664.26,182.32l34.1,-35.65l26.12,-27.31l16.34,15.62l-24.52,25.64l0.95,0.91c6.41,-5.74 12.32,-9.86 17.75,-12.36c5.43,-2.49 10.56,-3.33 15.41,-2.5c4.84,0.83 9.53,3.41 14.06,7.74c6.84,6.54 9.82,13.73 8.94,21.57c-0.88,7.84 -5.61,16.25 -14.2,25.23l-35.92,37.56l-19.32,-18.48l33.53,-35.06c4.11,-4.29 6.53,-8.14 7.27,-11.54c0.74,-3.4 -0.32,-6.47 -3.18,-9.21c-2.38,-2.28 -5.29,-3.46 -8.71,-3.54c-3.43,-0.08 -7.44,1.25 -12.05,4c-4.61,2.75 -9.92,7.26 -15.92,13.54l-21.33,22.3l-19.32,-18.48l0,0.02Z" style="fill:#fff;fill-rule:nonzero;"/><path d="M748.38,281.44c-4.42,-6.97 -7.12,-13.43 -8.1,-19.38c-0.98,-5.96 -0.64,-11.48 1.01,-16.57c1.65,-5.09 4.31,-9.68 7.98,-13.76c3.67,-4.08 7.95,-7.69 12.88,-10.81c5.29,-3.36 10.78,-5.9 16.47,-7.62c5.68,-1.72 11.3,-2.36 16.87,-1.91c5.56,0.44 10.86,2.23 15.9,5.35c5.04,3.12 9.57,7.83 13.58,14.15c4.01,6.31 6.35,12.42 7.03,18.31c0.68,5.89 -0.08,11.42 -2.27,16.59c-2.19,5.17 -5.59,9.77 -10.2,13.8c-4.61,4.03 -10.21,7.42 -16.8,10.17l-34.7,-52.83l12.26,-7.78l23.6,35.64l-8.96,1.58c4.62,-2.15 8.18,-4.51 10.66,-7.06c2.48,-2.55 3.9,-5.25 4.26,-8.08c0.35,-2.83 -0.5,-5.87 -2.56,-9.12c-2.18,-3.44 -4.8,-5.62 -7.86,-6.54c-3.06,-0.92 -6.46,-0.79 -10.19,0.41c-3.74,1.2 -7.79,3.18 -12.15,5.95c-7.52,4.77 -12.21,9.51 -14.05,14.19c-1.85,4.69 -1.12,9.63 2.18,14.83c1.42,2.23 2.87,3.91 4.37,5.04c1.5,1.13 3.08,1.82 4.74,2.07c1.66,0.25 3.37,0.08 5.14,-0.53c1.77,-0.6 3.6,-1.57 5.49,-2.9l11.97,21.33c-2.89,2.22 -6.24,3.93 -10.05,5.11c-3.81,1.18 -7.88,1.45 -12.19,0.8c-4.32,-0.65 -8.73,-2.57 -13.24,-5.77c-4.51,-3.2 -8.85,-8.1 -13.04,-14.69l-0.03,0.03Z" style="fill:#fff;fill-rule:nonzero;"/><path d="M782.92,352.67c-3.63,-9.56 -3.9,-17.61 -0.79,-24.15c3.1,-6.54 9.8,-11.76 20.08,-15.66l33.78,-12.84l-3.4,-8.95l15.73,-5.98l0.18,0.46c3.24,6.06 7.1,9.77 11.56,11.14c4.46,1.36 10.3,1.03 17.53,-1.01l0.31,-0.12l5.57,14.65l-18.66,7.09l7.09,18.66l-20.05,7.62l-7.09,-18.66l-30.85,11.72c-3.91,1.49 -6.32,3.49 -7.24,6.02c-0.92,2.53 -0.86,5.18 0.2,7.96c0.55,1.44 1.32,2.85 2.32,4.24c1,1.39 2.11,2.61 3.34,3.67l-21.75,8.26c-2.14,-2.84 -3.8,-5.44 -5,-7.81c-1.19,-2.37 -2.14,-4.48 -2.85,-6.33l-0.01,0.02Z" style="fill:#fff;fill-rule:nonzero;"/><path d="M788.11,580.19l21.09,8.58l-23.94,58.84l-21.09,-8.58l23.94,-58.84Zm1.74,-4.28l100.87,41.03l-10.07,24.76l-100.87,-41.03l10.07,-24.76Z" style="fill:#fff;fill-rule:nonzero;"/><path d="M745.45,663.09c5.42,-7.76 12.14,-11.62 20.16,-11.58c8.03,0.03 17.63,3.96 28.81,11.77l40.32,28.15l-15.3,21.92l-40.05,-27.96c-5.23,-3.65 -9.4,-5.46 -12.52,-5.42c-3.12,0.04 -5.65,1.46 -7.6,4.25c-1.38,1.98 -2.14,4.17 -2.27,6.57c-0.13,2.39 0.43,4.96 1.67,7.7c1.24,2.74 3.29,5.62 6.15,8.62c2.86,3.01 6.64,6.15 11.33,9.42l27.6,19.27l-15.3,21.92l-39.23,-27.39l-32.2,-22.48l13.04,-18.67l27.87,19.46l0.66,-0.95c-6.57,-5.39 -11.38,-10.56 -14.43,-15.51c-3.05,-4.95 -4.45,-9.82 -4.2,-14.6c0.26,-4.79 2.08,-9.61 5.48,-14.48l0.01,-0.01Z" style="fill:#fff;fill-rule:nonzero;"/><path d="M678.04,740.14c5.87,-5.15 11.7,-8.69 17.47,-10.61c5.78,-1.92 11.37,-2.47 16.77,-1.65c5.4,0.82 10.5,2.71 15.3,5.68c4.79,2.96 9.19,6.72 13.18,11.27c4.06,4.63 7.3,9.58 9.73,14.84c2.42,5.26 3.8,10.71 4.13,16.35c0.33,5.63 -0.76,11.23 -3.26,16.8c-2.51,5.56 -6.7,10.92 -12.57,16.07c-6.95,6.09 -13.69,9.7 -20.24,10.83c-6.54,1.13 -12.48,0.37 -17.8,-2.28c-5.32,-2.65 -9.72,-6.7 -13.18,-12.15l16.17,-16.6c2.45,3.12 4.91,5.31 7.4,6.56c2.49,1.25 4.94,1.67 7.34,1.24c2.4,-0.43 4.72,-1.62 6.96,-3.58c1.98,-1.74 3.42,-3.65 4.29,-5.74c0.88,-2.09 1.16,-4.35 0.85,-6.78c-0.31,-2.44 -1.21,-5.05 -2.7,-7.84c-1.49,-2.79 -3.66,-5.79 -6.48,-9.02c-3.63,-4.14 -7.22,-7.27 -10.78,-9.42c-3.56,-2.14 -7,-3.15 -10.33,-3.01c-3.32,0.13 -6.47,1.51 -9.45,4.12c-3.06,2.68 -4.72,5.46 -4.99,8.33c-0.26,2.87 0.35,5.65 1.85,8.36c1.5,2.71 3.39,5.03 5.68,6.98l-19.25,15.34c-3.69,-3.21 -6.62,-6.89 -8.81,-11.04c-2.18,-4.16 -3.29,-8.63 -3.33,-13.43c-0.04,-4.8 1.22,-9.71 3.77,-14.72c2.55,-5.02 6.64,-9.99 12.26,-14.92l0.02,0.02Z" style="fill:#fff;fill-rule:nonzero;"/><path d="M624.09,778.92c3.9,-2.03 7.96,-3.28 12.19,-3.75c4.22,-0.46 8.26,0.25 12.1,2.16c3.85,1.9 7.11,5.44 9.81,10.61c2.49,4.78 3.58,9.14 3.28,13.08c-0.3,3.94 -1.54,7.62 -3.73,11.06c-2.18,3.43 -4.88,6.57 -8.11,9.44c-3.22,2.86 -6.46,5.57 -9.72,8.13c-4.56,3.62 -7.96,6.38 -10.19,8.29c-2.23,1.91 -3.61,3.49 -4.13,4.76c-0.52,1.26 -0.43,2.58 0.29,3.94c1.47,2.83 3.64,4.43 6.5,4.8c2.86,0.37 6,-0.33 9.41,-2.11c2.15,-1.12 4.09,-2.63 5.83,-4.53c1.74,-1.9 2.77,-4.21 3.09,-6.92c0.32,-2.71 -0.53,-5.9 -2.56,-9.55l21.83,-9.52c3.4,6.04 5.13,11.62 5.19,16.74c0.06,5.11 -1.09,9.75 -3.46,13.9c-2.37,4.15 -5.42,7.81 -9.15,11c-3.74,3.19 -7.7,5.87 -11.89,8.06c-7.71,4.02 -14.8,5.88 -21.27,5.6c-6.48,-0.29 -12.32,-2.51 -17.53,-6.68c-5.21,-4.17 -9.83,-10.11 -13.84,-17.81l-7.17,-13.75c-1.68,-3.22 -3.37,-6.46 -5.07,-9.73c-1.7,-3.27 -3.39,-6.51 -5.07,-9.73l-5.03,-9.66l20.49,-10.68c1.83,3.51 3.69,7.07 5.57,10.68c1.88,3.61 3.86,7.41 5.95,11.41l0.88,-0.46c-1.9,-4.59 -2.56,-9.37 -1.97,-14.32c0.58,-4.95 2.33,-9.58 5.23,-13.89c2.91,-4.3 6.99,-7.83 12.26,-10.57l-0.01,0Zm-0.8,22.38c-1.66,0.86 -3.27,2.11 -4.84,3.73c-1.57,1.62 -2.83,3.61 -3.77,5.97c-0.94,2.35 -1.28,5.1 -1.01,8.25c0.27,3.14 1.4,6.62 3.38,10.42l1.83,3.51l-3.72,2.5c0.12,-1.68 0.88,-3.37 2.28,-5.09c1.4,-1.72 3.11,-3.39 5.12,-4.99c2.02,-1.61 4.06,-3.23 6.12,-4.86c2.06,-1.63 3.88,-3.33 5.45,-5.07c1.57,-1.75 2.65,-3.55 3.23,-5.4c0.58,-1.86 0.32,-3.86 -0.8,-6c-1.32,-2.54 -3.23,-3.99 -5.72,-4.37c-2.49,-0.38 -5,0.1 -7.54,1.42l-0.01,-0.02Z" style="fill:#fff;fill-rule:nonzero;"/><path d="M530.51,816.23c5.66,-1.41 11.05,-2.16 16.19,-2.25c5.14,-0.09 9.8,0.65 13.98,2.21c4.19,1.56 7.73,4.17 10.62,7.81c2.89,3.64 4.91,8.44 6.05,14.39l-22.1,7.55c-1.09,-3.47 -2.62,-6.18 -4.58,-8.13c-1.96,-1.95 -4.3,-3.15 -7.02,-3.61c-2.72,-0.46 -5.84,-0.25 -9.37,0.63c-3.31,0.82 -6.02,2.1 -8.15,3.81c-2.12,1.72 -2.85,3.91 -2.19,6.58c0.34,1.39 1.06,2.43 2.14,3.12c1.08,0.69 2.87,1.16 5.36,1.38c2.5,0.23 6.06,0.33 10.71,0.31c5.79,0.03 11.05,0.19 15.77,0.49c4.72,0.29 8.87,1.02 12.44,2.17c3.58,1.15 6.51,2.94 8.82,5.37c2.31,2.43 3.98,5.73 5.01,9.89c1.46,5.87 1.13,11.25 -0.99,16.15c-2.12,4.89 -5.69,9.12 -10.7,12.7c-5,3.57 -11.14,6.26 -18.4,8.07c-6.51,1.62 -12.85,2.12 -19.01,1.5c-6.16,-0.62 -11.44,-2.82 -15.84,-6.6c-4.4,-3.78 -7.12,-9.56 -8.15,-17.35l21.58,-7.59c0.45,3.17 1.54,5.71 3.25,7.61c1.72,1.89 3.84,3.12 6.36,3.69c2.52,0.57 5.38,0.44 8.58,-0.35c3.63,-0.9 6.27,-2.27 7.91,-4.1c1.64,-1.83 2.21,-3.75 1.71,-5.78c-0.4,-1.6 -1.35,-2.81 -2.86,-3.62c-1.5,-0.82 -3.67,-1.3 -6.48,-1.45c-2.81,-0.15 -6.42,-0.19 -10.83,-0.11c-3.81,0.16 -7.84,0.14 -12.08,-0.05c-4.24,-0.19 -8.32,-0.85 -12.22,-1.97c-3.91,-1.13 -7.33,-3.02 -10.26,-5.69c-2.93,-2.67 -5.01,-6.46 -6.23,-11.37c-1.3,-5.23 -1.01,-10.18 0.89,-14.85c1.9,-4.67 5.36,-8.76 10.38,-12.28c5.02,-3.52 11.59,-6.29 19.7,-8.31l0.01,0.03Z" style="fill:#fff;fill-rule:nonzero;"/><path d="M430.31,859.94l-2,21.36l-20.21,-1.89c-6.68,-0.62 -11.79,0.25 -15.33,2.63c-3.54,2.38 -5.6,6.69 -6.18,12.93c-0.55,5.91 0.54,10.46 3.28,13.65c2.74,3.18 7.18,5.06 13.31,5.64l21.85,2.04l-2,21.36l-23.33,-2.18c-6.24,-0.58 -11.98,-1.87 -17.21,-3.85c-5.23,-1.98 -9.69,-4.75 -13.39,-8.3c-3.7,-3.55 -6.45,-7.84 -8.24,-12.87c-1.79,-5.03 -2.37,-10.94 -1.74,-17.73c0.81,-8.65 3.43,-15.7 7.86,-21.14c4.43,-5.44 10.45,-9.27 18.06,-11.49c7.61,-2.22 16.73,-2.83 27.35,-1.83l17.91,1.68l0.01,-0.01Zm22.75,-28.86l-10.14,108.43l-26.61,-2.49l10.14,-108.43l26.61,2.49Z" style="fill:#fff;fill-rule:nonzero;"/><path d="M323.61,805.15c7.78,2.75 13.89,6.16 18.34,10.24c4.45,4.08 7.6,8.63 9.44,13.66c1.84,5.03 2.58,10.27 2.22,15.75c-0.36,5.47 -1.51,10.96 -3.45,16.46c-2.09,5.91 -4.84,11.3 -8.25,16.16c-3.41,4.86 -7.44,8.83 -12.08,11.92c-4.65,3.08 -9.92,4.95 -15.81,5.61c-5.89,0.66 -12.36,-0.26 -19.42,-2.75c-7.05,-2.49 -12.66,-5.85 -16.83,-10.06c-4.17,-4.22 -6.99,-9.03 -8.46,-14.45c-1.47,-5.42 -1.63,-11.14 -0.5,-17.15c1.14,-6.02 3.45,-12.14 6.93,-18.38l59.92,20.12l-4.84,13.69l-40.57,-13.46l6.07,-6.78c-2.31,4.55 -3.65,8.6 -4.03,12.14c-0.38,3.54 0.17,6.54 1.64,8.98c1.47,2.44 4.02,4.31 7.65,5.59c3.84,1.36 7.25,1.45 10.22,0.29c2.98,-1.17 5.57,-3.37 7.76,-6.62c2.2,-3.25 4.16,-7.31 5.88,-12.18c2.97,-8.4 3.73,-15.02 2.29,-19.84c-1.44,-4.83 -5.07,-8.27 -10.88,-10.32c-2.49,-0.88 -4.67,-1.3 -6.55,-1.27c-1.88,0.04 -3.55,0.47 -5.01,1.29c-1.46,0.83 -2.7,2.02 -3.72,3.59c-1.02,1.56 -1.86,3.45 -2.53,5.67l-22.58,-9.38c0.9,-3.53 2.48,-6.94 4.75,-10.22c2.27,-3.28 5.3,-6 9.1,-8.16c3.8,-2.16 8.45,-3.37 13.97,-3.64c5.52,-0.27 11.96,0.9 19.32,3.5l0.01,0Z" style="fill:#fff;fill-rule:nonzero;"/><path d="M281.06,790.19l-24.75,40.37l-20.78,33.9l-19.69,-12.07l18.11,-29.54l-1.13,-0.69c-5.39,7.53 -10.3,13.07 -14.73,16.61c-4.43,3.54 -8.47,5.51 -12.14,5.91c-3.66,0.4 -7.04,-0.35 -10.14,-2.25c-1.69,-1.04 -3.3,-2.35 -4.84,-3.94c-1.54,-1.59 -2.88,-3.45 -4.04,-5.57l16.65,-24.63c1.32,2.48 2.77,4.63 4.37,6.45c1.6,1.82 3.29,3.27 5.07,4.36c3,1.84 6.05,2.55 9.15,2.12c3.1,-0.42 6.19,-1.95 9.28,-4.57c3.09,-2.62 6.07,-6.28 8.95,-10.97l18.02,-29.4l22.65,13.88l-0.01,0.03Z" style="fill:#fff;fill-rule:nonzero;"/><path d="M226.47,757.18l-34.1,35.65l-26.12,27.31l-16.34,-15.62l24.52,-25.64l-0.95,-0.91c-6.41,5.74 -12.32,9.86 -17.75,12.36c-5.43,2.49 -10.56,3.33 -15.41,2.5c-4.84,-0.83 -9.53,-3.41 -14.06,-7.74c-6.84,-6.54 -9.82,-13.73 -8.94,-21.57c0.88,-7.84 5.61,-16.25 14.2,-25.23l35.92,-37.56l19.32,18.48l-33.53,35.06c-4.11,4.29 -6.53,8.14 -7.27,11.54c-0.74,3.4 0.32,6.47 3.18,9.21c2.38,2.28 5.29,3.46 8.71,3.54c3.43,0.08 7.44,-1.25 12.05,-4c4.61,-2.75 9.92,-7.26 15.92,-13.54l21.33,-22.3l19.32,18.48l0,-0.02Z" style="fill:#fff;fill-rule:nonzero;"/><path d="M142.34,658.06c4.42,6.97 7.12,13.43 8.1,19.38c0.98,5.96 0.64,11.48 -1.01,16.57c-1.65,5.09 -4.31,9.68 -7.98,13.76c-3.67,4.08 -7.95,7.69 -12.88,10.81c-5.29,3.36 -10.78,5.9 -16.47,7.62c-5.68,1.72 -11.3,2.36 -16.87,1.91c-5.56,-0.44 -10.86,-2.23 -15.9,-5.35c-5.04,-3.12 -9.57,-7.83 -13.58,-14.15c-4.01,-6.31 -6.35,-12.42 -7.03,-18.31c-0.68,-5.89 0.08,-11.42 2.27,-16.59c2.19,-5.17 5.59,-9.77 10.2,-13.8c4.61,-4.03 10.21,-7.42 16.8,-10.17l34.7,52.83l-12.26,7.78l-23.6,-35.64l8.96,-1.58c-4.62,2.15 -8.18,4.51 -10.66,7.06c-2.48,2.55 -3.9,5.25 -4.26,8.08c-0.35,2.83 0.5,5.87 2.56,9.12c2.18,3.44 4.8,5.62 7.86,6.54c3.06,0.92 6.46,0.79 10.19,-0.41c3.74,-1.2 7.79,-3.18 12.15,-5.95c7.52,-4.77 12.21,-9.51 14.05,-14.19c1.85,-4.69 1.12,-9.63 -2.18,-14.83c-1.42,-2.23 -2.87,-3.91 -4.37,-5.04c-1.5,-1.13 -3.08,-1.82 -4.74,-2.07c-1.66,-0.25 -3.37,-0.08 -5.14,0.53c-1.77,0.6 -3.6,1.57 -5.49,2.9l-11.97,-21.33c2.89,-2.22 6.24,-3.93 10.05,-5.11c3.81,-1.18 7.88,-1.45 12.19,-0.8c4.32,0.65 8.73,2.57 13.24,5.77c4.51,3.2 8.85,8.1 13.04,14.69l0.03,-0.03Z" style="fill:#fff;fill-rule:nonzero;"/><path d="M107.81,586.83c3.63,9.56 3.9,17.61 0.79,24.15c-3.1,6.54 -9.8,11.76 -20.08,15.66l-33.78,12.84l3.4,8.95l-15.73,5.98l-0.18,-0.46c-3.24,-6.06 -7.1,-9.77 -11.56,-11.14c-4.46,-1.36 -10.3,-1.03 -17.53,1.01l-0.31,0.12l-5.57,-14.65l18.66,-7.09l-7.09,-18.66l20.05,-7.62l7.09,18.66l30.85,-11.72c3.91,-1.49 6.32,-3.49 7.24,-6.02c0.92,-2.53 0.86,-5.18 -0.2,-7.96c-0.55,-1.44 -1.32,-2.85 -2.32,-4.24c-1,-1.39 -2.11,-2.61 -3.34,-3.67l21.75,-8.26c2.14,2.84 3.8,5.44 5,7.81c1.19,2.37 2.14,4.48 2.85,6.33l0.01,-0.02Z" style="fill:#fff;fill-rule:nonzero;"/></g></svg>